<?xml version="1.0" ?><svg enable-background="new 0 0 400 400" height="100" id="Layer_1" version="1.1" viewBox="0 0 100 100" width="100" xml:space="preserve" xmlns="http://www.w3.org/2000/svg" xmlns:cc="http://creativecommons.org/ns#" xmlns:dc="http://purl.org/dc/elements/1.1/" xmlns:inkscape="http://www.inkscape.org/namespaces/inkscape" xmlns:rdf="http://www.w3.org/1999/02/22-rdf-syntax-ns#" xmlns:sodipodi="http://sodipodi.sourceforge.net/DTD/sodipodi-0.dtd" xmlns:svg="http://www.w3.org/2000/svg"><defs id="defs25"/><g id="g3" transform="matrix(0.21972411,0,0,0.21972411,6.0186409,5.3938706)"><path d="M 142.9,24.2 C 97.6,39.7 59,73.6 37.5,116.5 30,131.3 24.6,147 21.3,163.3 c -8.2,40.4 -2.5,83.5 16.1,120.3 12.1,24 29.5,45.4 50.5,62.1 19.9,15.8 43,27.6 67.6,34.1 31,8.3 64,8.1 95.2,1 28.2,-6.5 54.9,-20 76.2,-39.6 22.5,-20.7 38.6,-47.9 47.1,-77.2 9.3,-31.9 10.5,-66 4.7,-98.8 -58.3,0 -116.7,0 -175,0 0,24.2 0,48.4 0,72.6 33.8,0 67.6,0 101.4,0 -3.9,23.2 -17.7,44.4 -37.2,57.5 -12.3,8.3 -26.4,13.6 -41,16.2 -14.6,2.5 -29.8,2.8 -44.4,-0.1 -14.9,-3 -29,-9.2 -41.4,-17.9 -19.8,-13.9 -34.9,-34.2 -42.6,-57.1 -7.9,-23.3 -8,-49.2 0,-72.4 5.6,-16.4 14.8,-31.5 27,-43.9 15,-15.4 34.5,-26.4 55.6,-30.9 18,-3.8 37,-3.1 54.6,2.2 15,4.5 28.8,12.8 40.1,23.6 11.4,-11.4 22.8,-22.8 34.2,-34.2 6,-6.1 12.3,-12 18.1,-18.3 -17.3,-16 -37.7,-28.9 -59.9,-37.1 -40,-14.8 -85,-15.1 -125.3,-1.2 z" id="path5" style="fill:#ffffff"/><g id="g7"><path d="m 142.9,24.2 c 40.2,-13.9 85.3,-13.6 125.3,1.1 22.2,8.2 42.5,21 59.9,37.1 -5.8,6.3 -12.1,12.2 -18.1,18.3 -11.4,11.4 -22.8,22.8 -34.2,34.2 -11.3,-10.8 -25.1,-19 -40.1,-23.6 -17.6,-5.3 -36.6,-6.1 -54.6,-2.2 -21,4.5 -40.5,15.5 -55.6,30.9 -12.2,12.3 -21.4,27.5 -27,43.9 C 78.2,148.1 57.9,132.4 37.5,116.6 59,73.6 97.6,39.7 142.9,24.2 z" id="path9" style="fill:#ea4335"/></g><g id="g11"><path d="m 21.4,163.2 c 3.3,-16.2 8.7,-32 16.2,-46.8 20.3,15.8 40.6,31.5 61,47.3 -8,23.3 -8,49.2 0,72.4 C 78.3,251.9 58,267.7 37.7,283.4 18.9,246.7 13.2,203.6 21.4,163.2 z" id="path13" style="fill:#fbbc05"/></g><g id="g15"><path d="m 203.7,165.1 c 58.3,0 116.7,0 175,0 5.8,32.7 4.5,66.8 -4.7,98.8 -8.5,29.3 -24.6,56.5 -47.1,77.2 -19.7,-15.3 -39.4,-30.6 -59.1,-45.9 19.5,-13.1 33.3,-34.3 37.2,-57.5 -33.8,0 -67.6,0 -101.4,0 0.1,-24.2 0.1,-48.4 0.1,-72.6 z" id="path17" style="fill:#4285f4"/></g><g id="g19"><path d="m 37.5,283.5 c 20.3,-15.7 40.6,-31.5 60.9,-47.3 7.8,22.9 22.8,43.2 42.6,57.1 12.4,8.7 26.6,14.9 41.4,17.9 14.6,3 29.7,2.6 44.4,0.1 14.6,-2.6 28.7,-7.9 41,-16.2 19.7,15.3 39.4,30.6 59.1,45.9 -21.3,19.7 -48,33.1 -76.2,39.6 -31.2,7.1 -64.2,7.3 -95.2,-1 -24.6,-6.5 -47.7,-18.2 -67.6,-34.1 -20.9,-16.6 -38.3,-38 -50.4,-62 z" id="path21" style="fill:#34a853"/></g></g></svg>