<?xml version="1.0" ?><svg enable-background="new 0 0 841.89 595.28" height="100" id="Layer_1" version="1.1" viewBox="0 0 99.999998 99.999995" width="100" xml:space="preserve" xmlns="http://www.w3.org/2000/svg" xmlns:cc="http://creativecommons.org/ns#" xmlns:dc="http://purl.org/dc/elements/1.1/" xmlns:inkscape="http://www.inkscape.org/namespaces/inkscape" xmlns:rdf="http://www.w3.org/1999/02/22-rdf-syntax-ns#" xmlns:sodipodi="http://sodipodi.sourceforge.net/DTD/sodipodi-0.dtd" xmlns:svg="http://www.w3.org/2000/svg"><defs id="defs161"/><g id="g155" transform="matrix(0.39567862,0,0,0.39567862,-116.55874,-67.769787)"><path d="m 522.07,234.914 c -7.441,3.3 -15.438,5.531 -23.832,6.534 8.566,-5.136 15.146,-13.267 18.244,-22.957 -8.018,4.756 -16.897,8.208 -26.35,10.069 -7.568,-8.064 -18.354,-13.103 -30.287,-13.103 -22.916,0 -41.495,18.578 -41.495,41.493 0,3.252 0.367,6.419 1.075,9.456 -34.486,-1.73 -65.061,-18.25 -85.526,-43.354 -3.572,6.128 -5.618,13.255 -5.618,20.86 0,14.396 7.325,27.097 18.459,34.538 -6.802,-0.215 -13.201,-2.082 -18.794,-5.19 -0.004,0.174 -0.004,0.348 -0.004,0.522 0,20.104 14.303,36.874 33.285,40.687 -3.481,0.949 -7.147,1.457 -10.931,1.457 -2.674,0 -5.273,-0.262 -7.808,-0.744 5.281,16.482 20.605,28.48 38.762,28.814 -14.201,11.129 -32.092,17.764 -51.533,17.764 -3.35,0 -6.652,-0.197 -9.898,-0.582 18.363,11.775 40.174,18.645 63.607,18.645 76.322,0 118.059,-63.229 118.059,-118.061 0,-1.798 -0.04,-3.587 -0.12,-5.368 8.108,-5.851 15.142,-13.159 20.705,-21.48 z" id="path157" style="fill:#2aa9e0"/></g></svg>